<svg id="visual" viewBox="0 0 900 450" width="900" height="450" xmlns="http://www.w3.org/2000/svg" xmlns:xlink="http://www.w3.org/1999/xlink" version="1.1"><rect x="0" y="0" width="900" height="450" fill="#1e2f32"></rect><g fill="#6b3bdb"><circle r="47" cx="885" cy="299"></circle><circle r="15" cx="374" cy="337"></circle><circle r="29" cx="202" cy="113"></circle><circle r="40" cx="55" cy="123"></circle><circle r="41" cx="658" cy="296"></circle><circle r="45" cx="795" cy="392"></circle><circle r="39" cx="245" cy="352"></circle><circle r="14" cx="184" cy="232"></circle><circle r="19" cx="456" cy="33"></circle><circle r="39" cx="487" cy="335"></circle><circle r="23" cx="547" cy="147"></circle><circle r="45" cx="713" cy="144"></circle><circle r="21" cx="85" cy="244"></circle><circle r="22" cx="490" cy="233"></circle><circle r="21" cx="898" cy="12"></circle><circle r="26" cx="364" cy="102"></circle><circle r="18" cx="680" cy="11"></circle><circle r="26" cx="822" cy="228"></circle><circle r="19" cx="128" cy="52"></circle><circle r="27" cx="642" cy="408"></circle><circle r="26" cx="13" cy="410"></circle><circle r="25" cx="419" cy="431"></circle><circle r="41" cx="274" cy="34"></circle><circle r="43" cx="113" cy="365"></circle><circle r="44" cx="308" cy="216"></circle><circle r="36" cx="818" cy="120"></circle></g></svg>